<?xml version="1.0" encoding="utf-8"?>
<!-- Generator: Adobe Illustrator 23.0.1, SVG Export Plug-In . SVG Version: 6.00 Build 0)  -->
<svg version="1.1" id="Layer_1" xmlns="http://www.w3.org/2000/svg" xmlns:xlink="http://www.w3.org/1999/xlink" x="0px" y="0px"
	 viewBox="0 0 512 512" style="enable-background:new 0 0 512 512;" xml:space="preserve">
<style type="text/css">
	.st0{fill:#C4C4C4;}
</style>
<g>
	<path class="st0" d="M459.6,51.4C429.2,20.9,387,2,340.5,2C294,2,251.8,20.9,221.3,51.4S172,124,172,170.5
		c0,36.9,11.8,70.9,31.9,98.7c-0.3,0.3-0.6,0.6-0.9,0.9L9.9,463.2c-10.5,10.5-10.5,27.5,0,38c5.2,5.2,12.1,7.9,19,7.9
		s13.7-2.6,19-7.9L240.9,308c0.3-0.3,0.6-0.6,0.9-0.9c27.7,20.1,61.8,31.9,98.7,31.9c46.5,0,88.7-18.9,119.1-49.4
		C490.1,259.2,509,217,509,170.5S490.1,81.8,459.6,51.4z M246.8,76.8c25-25,58.3-38.8,93.7-38.8c35.4,0,68.7,13.8,93.7,38.8
		c25,25,38.8,58.3,38.8,93.7H342.4H208C208,135.1,221.8,101.8,246.8,76.8z M434.2,264.2c-25,25-58.3,38.8-93.7,38.8
		c-35.4,0-68.7-13.8-93.7-38.8c-1.4-1.4-2.7-2.8-4-4.2h195.5C436.9,261.4,435.6,262.8,434.2,264.2z M458.9,230.1H222.1
		c-4.8-9.5-8.4-19.5-10.8-29.8h258.3C467.3,210.7,463.7,220.7,458.9,230.1z"/>
	<path class="st0" d="M342.4,88.5c-15.9,0-28.7,12.8-28.7,28.7c0,21.5,28.7,53.3,28.7,53.3s28.7-31.8,28.7-53.3
		C371.1,101.3,358.2,88.5,342.4,88.5z"/>
</g>
</svg>
