<?xml version="1.0" encoding="utf-8"?>
<!-- Generator: Adobe Illustrator 23.0.1, SVG Export Plug-In . SVG Version: 6.00 Build 0)  -->
<svg version="1.1" id="Layer_1" xmlns="http://www.w3.org/2000/svg" xmlns:xlink="http://www.w3.org/1999/xlink" x="0px" y="0px"
	 viewBox="0 0 787 417.2" style="enable-background:new 0 0 787 417.2;" xml:space="preserve">
<style type="text/css">
	.st0{fill:none;stroke:#000000;stroke-miterlimit:10;}
	.st1{fill:#C4C4C4;}
</style>
<title>logo_expand</title>
<path class="st0" d="M117.5,236.6"/>
<path class="st0" d="M379.5,236.6"/>
<path class="st0" d="M117.5,236.6"/>
<path d="M764.4,23.7l-0.7-0.7L578.8,207.9L393.8,23l-0.4-0.4L208.3,207.9L23.3,23l-0.7,0.7l184.9,184.9L22.6,393.5l0.7,0.7
	l184.9-184.9l185,184.9l0.4,0.4l185.2-185.3l184.9,185l0.7-0.7l-184.9-185L764.4,23.7z M393.4,24.1l92,91.9L300.9,300.5L209,208.7
	L393.4,24.1z M301.6,301.2l184.6-184.6l91.9,91.8L393.6,393.1L301.6,301.2z"/>
<path class="st1" d="M393.6,417.2l-11.7-11.7L208.2,232L23.3,416.8L0,393.5l184.9-184.9L0,23.7L23.3,0.3l184.9,185L393.4,0
	l11.7,11.7l173.7,173.6L763.7,0.3L787,23.7L602.1,208.6L787,393.5l-23.3,23.3L578.7,231.9L393.6,417.2z M324.2,301.2l69.4,69.3
	l161.9-162l-69.3-69.2L324.2,301.2z M231.6,208.6l69.3,69.2L462.8,116l-69.4-69.3L231.6,208.6z"/>
</svg>
